<?xml version="1.0" encoding="utf-8"?>
<!-- Generator: Adobe Illustrator 22.0.1, SVG Export Plug-In . SVG Version: 6.00 Build 0)  -->
<svg version="1.1" id="Layer_1" xmlns="http://www.w3.org/2000/svg" xmlns:xlink="http://www.w3.org/1999/xlink" x="0px" y="0px"
	 viewBox="0 0 128 128" style="enable-background:new 0 0 128 128;" xml:space="preserve">
<style type="text/css">
	.st0{fill:none;stroke:#000000;stroke-width:5;stroke-linecap:round;stroke-linejoin:round;stroke-miterlimit:10;}
	.st1{fill:#00FFFF;}
	.st2{fill:#FFFF00;}
	.st3{fill:#FF00FF;}
</style>
<g>
	
		<rect x="32.8" y="22.6" transform="matrix(0.6695 -0.7428 0.7428 0.6695 -17.1225 60.8955)" class="st0" width="54.2" height="54.2"/>
	<circle class="st0" cx="46.6" cy="78.5" r="29.5"/>
	<polygon class="st0" points="86.9,114.4 116.2,57.1 51.9,60.4 	"/>
</g>
<g>
	<g>
		<line class="st0" x1="252.8" y1="51.7" x2="198.7" y2="105.7"/>
		<line class="st0" x1="252.8" y1="51.7" x2="233.1" y2="50.7"/>
		<line class="st0" x1="252.8" y1="51.7" x2="253.7" y2="71.3"/>
	</g>
	<g>
		<line class="st0" x1="224.3" y1="23.2" x2="170.3" y2="77.3"/>
		<line class="st0" x1="224.3" y1="23.2" x2="204.7" y2="22.3"/>
		<line class="st0" x1="224.3" y1="23.2" x2="225.3" y2="42.9"/>
	</g>
</g>
<g>
	<g>
		<circle cx="318.2" cy="60.4" r="8"/>
	</g>
	<g>
		<circle cx="327.1" cy="32" r="8"/>
	</g>
	<g>
		<circle cx="373.3" cy="51.6" r="8"/>
	</g>
	<g>
		<circle cx="380.4" cy="26.7" r="8"/>
	</g>
	<g>
		<circle cx="401.8" cy="46.2" r="8"/>
	</g>
	<g>
		<circle cx="400" cy="72.9" r="8"/>
	</g>
	<g>
		<circle cx="391.1" cy="99.5" r="8"/>
	</g>
	<g>
		<circle cx="376.9" cy="76.4" r="8"/>
	</g>
	<g>
		<circle cx="346.7" cy="49.8" r="8"/>
	</g>
	<g>
		<circle cx="323.6" cy="88.9" r="8"/>
	</g>
	<g>
		<circle cx="350.2" cy="74.7" r="8"/>
	</g>
	<g>
		<circle cx="366.2" cy="99.5" r="8"/>
	</g>
	<g>
		<circle cx="341.3" cy="108.4" r="8"/>
	</g>
	<g>
		<circle cx="355.6" cy="19.6" r="8"/>
	</g>
</g>
<g>
	<g>
		<circle class="st1" cx="-60.2" cy="68.4" r="33.8"/>
	</g>
	<g>
		<circle class="st2" cx="-96.9" cy="83.8" r="33.8"/>
	</g>
	<g>
		<circle class="st3" cx="-92" cy="44.8" r="33.8"/>
	</g>
</g>
</svg>
